HIERARCHY
ROOT Hips
{
	OFFSET 0.000000 0.000000 0.000000
	CHANNELS 6 Xposition Yposition Zposition Zrotation Yrotation Xrotation 
	JOINT LeftUpLeg_virtual
	{
		OFFSET 0.000000 0.000000 0.000000
		CHANNELS 3 Zrotation Yrotation Xrotation
		JOINT LeftUpLeg
		{
			OFFSET 8.479694 -4.795517 -0.379053
			CHANNELS 3 Zrotation Yrotation Xrotation
			JOINT LeftLeg
			{
				OFFSET 0.485052 -32.551468 0.112863
				CHANNELS 3 Zrotation Yrotation Xrotation
				JOINT LeftFoot
				{
					OFFSET 0.438033 -32.635670 -3.012641
					CHANNELS 3 Zrotation Yrotation Xrotation
					JOINT LeftToeBase
					{
						OFFSET 0.970169 -13.225353 11.864223
						CHANNELS 3 Zrotation Yrotation Xrotation
						End Site
						{
							OFFSET 0.000000 0.000000 0.000000
						}
					}
				}
			}
		}
	}
	JOINT RightUpLeg_virtual
	{
		OFFSET 0.000000 0.000000 0.000000
		CHANNELS 3 Zrotation Yrotation Xrotation
		JOINT RightUpLeg
		{
			OFFSET -8.479694 -4.795517 -0.379053
			CHANNELS 3 Zrotation Yrotation Xrotation
			JOINT RightLeg
			{
				OFFSET -0.484100 -32.551483 0.112903
				CHANNELS 3 Zrotation Yrotation Xrotation
				JOINT RightFoot
				{
					OFFSET -0.438985 -32.635651 -3.012681
					CHANNELS 3 Zrotation Yrotation Xrotation
					JOINT RightToeBase
					{
						OFFSET -0.970169 -13.225354 11.864223
						CHANNELS 3 Zrotation Yrotation Xrotation
						End Site
						{
							OFFSET 0.000000 0.000000 0.000000
						}
					}
				}
			}
		}
	}
	JOINT Spine_virtual
	{
		OFFSET 0.000000 0.000000 0.000000
		CHANNELS 3 Zrotation Yrotation Xrotation
		JOINT Spine
		{
			OFFSET 0.000000 7.722015 1.166203
			CHANNELS 3 Zrotation Yrotation Xrotation
			JOINT Spine1
			{
				OFFSET 0.000000 12.024086 0.248766
				CHANNELS 3 Zrotation Yrotation Xrotation
				JOINT Spine2
				{
					OFFSET -0.000000 11.503036 -0.491240
					CHANNELS 3 Zrotation Yrotation Xrotation
					JOINT Neck_virtual
					{
						OFFSET 0.000000 0.000000 0.000000
						CHANNELS 3 Zrotation Yrotation Xrotation
						JOINT Neck
						{
							OFFSET 0.000000 18.430687 -3.123054
							CHANNELS 3 Zrotation Yrotation Xrotation
							JOINT Head
							{
								OFFSET -0.000000 9.051071 1.034021
								CHANNELS 3 Zrotation Yrotation Xrotation
								End Site
								{
									OFFSET 0.000000 0.000000 0.000000
								}
							}
						}
					}
					JOINT LeftShoulder_virtual
					{
						OFFSET 0.000000 0.000000 0.000000
						CHANNELS 3 Zrotation Yrotation Xrotation
						JOINT LeftShoulder
						{
							OFFSET 6.197824 13.665230 -4.064723
							CHANNELS 3 Zrotation Yrotation Xrotation
							JOINT LeftArm
							{
								OFFSET 7.778132 -0.187073 -1.709282
								CHANNELS 3 Zrotation Yrotation Xrotation
								JOINT LeftForeArm
								{
									OFFSET 21.954697 0.000000 -2.041093
									CHANNELS 3 Zrotation Yrotation Xrotation
									JOINT LeftHand
									{
										OFFSET 22.992908 0.000000 -0.870901
										CHANNELS 3 Zrotation Yrotation Xrotation
										End Site
										{
											OFFSET 0.000000 0.000000 0.000000
										}
									}
								}
							}
						}
					}
					JOINT RightShoulder_virtual
					{
						OFFSET 0.000000 0.000000 0.000000
						CHANNELS 3 Zrotation Yrotation Xrotation
						JOINT RightShoulder
						{
							OFFSET -6.197824 13.665230 -4.064723
							CHANNELS 3 Zrotation Yrotation Xrotation
							JOINT RightArm
							{
								OFFSET -7.778132 -0.187073 -1.709282
								CHANNELS 3 Zrotation Yrotation Xrotation
								JOINT RightForeArm
								{
									OFFSET -21.954697 0.000000 -2.041093
									CHANNELS 3 Zrotation Yrotation Xrotation
									JOINT RightHand
									{
										OFFSET -22.992908 0.000000 -0.870901
										CHANNELS 3 Zrotation Yrotation Xrotation
										End Site
										{
											OFFSET 0.000000 0.000000 0.000000
										}
									}
								}
							}
						}
					}
				}
			}
		}
	}
}
MOTION
Frames: 9
Frame Time: 0.033333
7.737016 63.691513 8.786577 179.713410 0.599347 179.555209 -7.029745 -4.868614 30.497348 -7.730277 9.285460 9.935361 14.151387 -3.988673 21.921654 -2.294228 -12.190566 -0.252264 0.000000 0.000000 0.000000 -1.587646 -4.979927 36.228744 15.624587 10.663945 -11.355073 -5.880527 5.736308 11.764063 17.114574 2.205970 -0.432586 0.000000 0.000000 0.000000 1.826402 -1.250451 0.718748 -1.974896 1.864562 -31.206014 -1.612902 -2.765199 14.258097 0.015669 0.117214 0.029286 -2.551172 0.391160 17.380494 -0.036501 0.120578 -5.970363 0.000000 0.000000 0.000000 -0.495578 0.958253 13.444630 -14.972323 -8.290629 -0.065619 -56.018445 -0.338148 16.119011 -2.734572 35.012059 1.720155 0.000000 0.000000 0.000000 -5.996170 3.362019 12.936609 31.055736 2.253273 12.756615 31.065562 14.951293 19.985919 -6.722563 19.122274 0.451658 0.000000 0.000000 0.000000 
7.692047 63.693714 8.696628 179.387952 0.880813 179.295198 -6.798850 -5.295806 30.167542 -7.427114 8.925125 9.656440 14.337382 -4.208899 21.488936 -1.915550 -11.817033 -0.352654 0.000000 0.000000 0.000000 -1.759397 -4.813469 36.279892 15.290849 10.599356 -11.289400 -6.128972 5.796420 11.757601 16.786494 1.862656 -0.225174 0.000000 0.000000 0.000000 1.727997 -1.429790 0.807908 -2.042894 1.951319 -31.012655 -1.622569 -2.613374 14.296732 0.056435 0.222851 -0.063923 -2.459353 0.806190 17.314915 -0.024332 0.147434 -6.033456 0.000000 0.000000 0.000000 -0.469496 0.977396 13.489467 -14.967120 -8.215350 -0.048324 -55.988198 -0.439277 16.126835 -2.698186 35.198096 1.756905 0.000000 0.000000 0.000000 -5.951327 3.389651 12.895467 30.865355 2.297502 12.705515 31.054729 14.985893 20.049650 -6.647538 19.221950 0.323654 0.000000 0.000000 0.000000 
7.645025 63.696301 8.562076 179.367967 0.755282 179.310825 -6.824898 -5.361525 30.261980 -7.447246 8.965023 9.597000 14.333032 -4.244784 21.501931 -1.941219 -11.801004 -0.298446 0.000000 0.000000 0.000000 -1.820007 -4.933603 36.304972 15.251618 10.599800 -11.254598 -6.050163 5.831189 11.747854 16.728863 1.819921 -0.138596 0.000000 0.000000 0.000000 1.722465 -1.519385 0.808919 -2.029092 2.100015 -31.038401 -1.595336 -2.758294 14.262734 0.043408 0.227981 -0.069420 -2.490481 0.262003 17.304008 -0.148068 0.164739 -6.030935 0.000000 0.000000 0.000000 -0.409982 0.954123 13.398932 -14.992988 -8.074767 0.068483 -56.029657 -0.686718 15.926669 -2.539001 35.202788 1.960799 0.000000 0.000000 0.000000 -5.945443 3.392134 12.916871 30.625311 2.408554 12.766733 31.110180 14.821531 20.211544 -6.712819 19.497082 0.304652 0.000000 0.000000 0.000000 
7.602484 63.689190 8.440135 179.332463 0.557323 179.320374 -6.826791 -5.396394 30.362383 -7.460004 9.047714 9.507526 14.348863 -4.305486 21.558770 -1.990165 -11.777619 -0.273325 0.000000 0.000000 0.000000 -1.934961 -4.984547 36.314470 15.302428 10.574668 -11.233795 -5.875177 5.725515 11.793410 16.630054 1.824262 -0.101234 0.000000 0.000000 0.000000 1.729014 -1.581025 0.772530 -1.977077 2.241115 -31.034433 -1.535394 -2.696956 14.260386 0.027359 0.248209 -0.033766 -2.359898 0.501299 17.265812 -0.237344 0.089002 -6.036261 0.000000 0.000000 0.000000 -0.377976 0.891678 13.452693 -15.110279 -7.990654 0.016937 -56.062736 -1.069856 16.144581 -2.439864 35.300743 2.331828 0.000000 0.000000 0.000000 -5.862488 3.306882 12.841710 30.401312 2.447466 12.780173 31.193044 14.454483 20.161912 -6.771596 19.784270 0.285819 0.000000 0.000000 0.000000 
7.579021 63.673424 8.340911 179.279529 0.349890 179.338529 -6.819211 -5.361642 30.421208 -7.461468 9.154590 9.411496 14.374541 -4.372124 21.645646 -2.061448 -11.742956 -0.272853 0.000000 0.000000 0.000000 -2.209229 -4.979687 36.322888 15.430415 10.564389 -11.250461 -5.528904 5.526277 11.956948 16.362195 1.812243 -0.129234 0.000000 0.000000 0.000000 1.700966 -1.504274 0.767376 -1.939731 2.389541 -30.976329 -1.473590 -2.753516 14.189464 0.052292 0.255698 -0.056826 -2.344693 0.442675 17.166062 -0.415662 0.008090 -6.200461 0.000000 0.000000 0.000000 -0.364247 0.862133 13.420124 -15.206807 -7.831399 -0.045112 -56.222234 -1.654556 16.575785 -1.987257 35.094106 2.832178 0.000000 0.000000 0.000000 -5.845296 3.185594 12.723289 30.236298 2.571986 12.806016 31.341283 14.189974 20.271779 -6.931800 19.994465 0.251284 0.000000 0.000000 0.000000 
7.593922 63.652847 8.256071 179.229546 0.199574 179.344389 -6.820283 -5.266370 30.453375 -7.447516 9.257563 9.349029 14.399437 -4.429701 21.738557 -2.144256 -11.690542 -0.275069 0.000000 0.000000 0.000000 -2.642792 -4.836762 36.344294 15.694077 10.596951 -11.272755 -4.894980 5.629208 12.207437 15.688516 1.625060 -0.159369 0.000000 0.000000 0.000000 1.594847 -1.284830 0.838338 -1.911306 2.507383 -30.960237 -1.410622 -2.974714 14.178846 0.036843 0.179315 -0.005579 -2.350043 0.148260 17.112839 -0.800569 0.013758 -6.173788 0.000000 0.000000 0.000000 -0.246807 0.765054 13.200931 -15.395887 -7.701372 0.082322 -56.316388 -2.180677 17.465345 -1.526347 34.370683 3.508418 0.000000 0.000000 0.000000 -5.765145 3.142245 12.697084 30.095337 2.900941 12.885849 31.497650 14.145469 20.456002 -7.042156 19.935119 0.266013 0.000000 0.000000 0.000000 
7.629416 63.636253 8.189693 179.219970 0.143873 179.363336 -6.844382 -5.177987 30.447040 -7.414780 9.345219 9.314748 14.424595 -4.473796 21.823892 -2.215470 -11.610039 -0.276976 0.000000 0.000000 0.000000 -2.236872 -4.877260 36.354481 15.152652 10.118331 -11.442975 -4.700374 4.802518 12.425041 16.507437 1.871122 -0.308046 0.000000 0.000000 0.000000 1.506521 -1.240399 0.789434 -1.825804 2.592119 -30.714855 -1.333106 -3.059407 14.075874 0.049939 0.215593 -0.050633 -2.265451 -0.009370 17.046639 -1.027352 -0.126310 -6.431920 0.000000 0.000000 0.000000 -0.139949 0.700262 13.076068 -15.469436 -7.521788 0.162561 -56.356939 -2.899237 18.477895 -0.551912 33.302336 4.758109 0.000000 0.000000 0.000000 -5.599480 3.200459 12.669144 30.014911 3.219060 12.980540 31.528874 14.043218 20.840697 -7.132127 19.920643 0.227347 0.000000 0.000000 0.000000 
7.691392 63.626957 8.157435 179.227374 0.187160 179.349621 -6.903911 -5.142383 30.422769 -7.363225 9.418949 9.337231 14.427590 -4.491753 21.887278 -2.274167 -11.524594 -0.261150 0.000000 0.000000 0.000000 -2.185451 -4.894883 36.344550 15.074654 9.838963 -11.508034 -4.633607 4.650327 12.600554 16.977900 1.839457 -0.331214 0.000000 0.000000 0.000000 1.387699 -1.144858 0.829802 -1.746144 2.711718 -30.560783 -1.236448 -3.116973 13.976120 0.091708 0.230217 -0.019368 -2.098915 0.266393 16.895281 -1.220435 -0.306381 -6.612263 0.000000 0.000000 0.000000 -0.018924 0.618457 12.951840 -15.403627 -7.473783 0.085734 -56.161073 -3.257086 20.052307 0.486675 31.654997 6.104513 0.000000 0.000000 0.000000 -5.419291 3.074455 12.533756 29.941466 3.570224 12.977834 31.408509 13.997978 21.358469 -7.138440 20.136904 0.199594 0.000000 0.000000 0.000000 
7.740288 63.636135 8.162086 179.249354 0.351225 179.350823 -6.996670 -5.170146 30.346233 -7.297319 9.496309 9.398031 14.390587 -4.485930 21.923925 -2.320381 -11.466767 -0.193956 0.000000 0.000000 0.000000 -2.240723 -4.980962 36.288436 15.080812 9.644418 -11.472761 -4.636628 4.643159 12.654955 17.101481 1.991989 -0.174579 0.000000 0.000000 0.000000 1.238932 -1.172317 0.823040 -1.550559 2.895524 -30.288119 -1.106136 -3.215570 13.849090 0.049367 0.222258 -0.028218 -2.015616 -0.185772 16.646274 -1.554142 -0.411191 -6.934528 0.000000 0.000000 0.000000 0.121091 0.535833 12.735658 -15.230560 -7.271642 0.109292 -55.518766 -3.131194 21.119269 1.896963 29.497924 7.886055 0.000000 0.000000 0.000000 -5.268168 3.049013 12.223546 29.805627 3.897013 13.054725 31.075038 13.657263 22.008615 -7.064229 20.951889 0.306956 0.000000 0.000000 0.000000 
